<?xml version="1.0" encoding="UTF-8"?>
<svg width="20px" height="19px" viewBox="0 0 20 19" version="1.1" xmlns="http://www.w3.org/2000/svg" xmlns:xlink="http://www.w3.org/1999/xlink">
    <!-- Generator: Sketch 48.2 (47327) - http://www.bohemiancoding.com/sketch -->
    <title>admin1</title>
    <desc>Created with Sketch.</desc>
    <defs></defs>
    <g id="iconography" stroke="none" stroke-width="1" fill="none" fill-rule="evenodd" transform="translate(-322.000000, -396.000000)">
        <path d="M337.439244,402.510482 L334.641795,405.307617 C334.52463,405.424766 334.33468,405.424753 334.217531,405.307588 C334.217515,405.307572 334.217499,405.307556 334.217483,405.307539 L333.533021,404.62248 C333.415918,404.505307 333.415952,404.315395 333.533098,404.198264 L333.53305,404.198216 L336.330262,401.401383 C336.077103,400.726128 336.222134,399.935586 336.765298,399.392454 L339.198864,396.959091 C339.355067,396.802897 339.608309,396.802891 339.764519,396.959076 L341.881563,399.075662 C342.037785,399.23186 342.037805,399.485126 341.881608,399.641348 C341.881598,399.641358 341.881588,399.641368 341.881577,399.641378 L339.447003,402.07575 C338.904151,402.61857 338.114085,402.763477 337.439244,402.510482 Z M340.380909,411.652016 C341.13444,412.405581 341.134433,413.627317 340.380894,414.380874 C339.627362,415.134423 338.405631,415.134437 337.652081,414.380906 L328.015211,404.744277 C327.52939,404.917995 327.022383,405.006007 326.502858,405.006007 C324.020133,405.006007 322,402.985666 322,400.502972 C322,399.884451 322.125114,399.283118 322.370322,398.716175 C322.428489,398.587707 322.457854,398.522876 322.458419,398.52168 C322.471273,398.486107 322.492036,398.452738 322.520721,398.424053 C322.573071,398.371714 322.641662,398.345582 322.710266,398.345582 C322.778783,398.345582 322.847375,398.371702 322.912242,398.428474 L325.382873,400.899248 L326.899411,399.382862 C325.219575,397.700904 324.379233,396.859497 324.378386,396.858641 C324.28953,396.769347 324.28953,396.624662 324.37805,396.53563 C324.399249,396.514779 324.422914,396.498686 324.447426,396.48643 L324.715864,396.370244 C325.283554,396.124606 325.884961,396 326.50287,396 C328.986006,396 331.005803,398.020104 331.005803,400.50296 C331.005803,401.022671 330.918055,401.529952 330.74434,402.015011 L340.380909,411.652016 Z M338.765311,411.98126 C338.357049,411.98126 338.026465,412.31188 338.026465,412.719891 C338.026465,413.127931 338.357049,413.458321 338.765311,413.458321 C339.173861,413.458321 339.504244,413.127931 339.504244,412.719891 C339.504244,412.311909 339.173861,411.98126 338.765311,411.98126 Z M323.582936,411.241515 L328.236763,406.587943 C328.471075,406.353643 328.850956,406.353641 329.085269,406.58794 L331.30533,408.807816 C331.539652,409.042123 331.539663,409.422022 331.305356,409.656344 L326.65142,414.3105 C325.804102,415.157858 324.430297,415.157891 323.582938,414.310574 C323.582884,414.31052 323.58283,414.310466 323.582776,414.310411 C322.735403,413.4629 322.735475,412.088938 323.582936,411.241515 Z" id="admin1" fill="#666666" fill-rule="nonzero"></path>
    </g>
</svg>