<?xml version="1.0" encoding="UTF-8"?>
<svg width="18px" height="19px" viewBox="0 0 18 19" version="1.1" xmlns="http://www.w3.org/2000/svg" xmlns:xlink="http://www.w3.org/1999/xlink">
    <!-- Generator: Sketch 48.2 (47327) - http://www.bohemiancoding.com/sketch -->
    <title>agreement</title>
    <desc>Created with Sketch.</desc>
    <defs></defs>
    <g id="iconography" stroke="none" stroke-width="1" fill="none" fill-rule="evenodd" transform="translate(-958.000000, -358.000000)">
        <path d="M967,367.890015 L970.552089,364.15541 C970.646474,364.056176 970.777432,364 970.914385,364 L975.115012,364 C975.603749,364 975.999948,364.450073 975.999948,364.880005 L975.999948,370.122293 C976.000743,370.328848 975.907165,370.527023 975.740239,370.672292 L974.672545,371.569215 L974.672545,375.953829 C974.694169,376.171744 974.610572,376.387608 974.442213,376.548589 C974.273854,376.70957 974.03627,376.800811 973.787609,376.799982 L971.199953,376.799982 C970.923811,376.799982 970.699953,376.576125 970.699953,376.299982 L970.699951,368 L967,370.600006 L963.300049,368 L963.3,376.299982 C963.3,376.576125 963.076143,376.799982 962.8,376.799982 L960.212344,376.799982 C959.963683,376.800811 959.726099,376.70957 959.55774,376.548589 C959.389381,376.387608 959.305784,376.171744 959.327409,375.953829 L959.327409,371.569215 L958.259714,370.672292 C958.092789,370.527023 957.999211,370.328848 958.000005,370.122293 L958.000005,364.880005 C958.000005,364.450073 958.396204,364 958.884941,364 L963.085571,364 C963.222522,364 963.353479,364.056175 963.447864,364.155408 L967,367.890015 Z M960.490637,362.999983 C959.113583,362.99492 957.99999,361.897692 958,360.545947 L958,360.454036 C958,359.098709 959.119288,358 960.5,358 C961.880712,358 963,359.098709 963,360.454036 L963,360.545947 C963.000005,361.198393 962.735328,361.823984 962.26446,362.28447 C961.793592,362.744956 961.155299,363.002426 960.490637,362.999983 Z M960.492188,359.00002 C959.666813,359.004215 958.999989,359.658323 959,360.463752 L959,360.539988 C959,361.348385 959.671573,362.00372 960.5,362.00372 C961.328427,362.00372 962,361.348385 962,360.539988 L962,360.463752 C962.000005,360.074222 961.840898,359.700756 961.557902,359.426032 C961.274905,359.151309 960.891364,358.997991 960.492188,359.00002 Z M973.509363,362.999983 C972.844701,363.002426 972.206408,362.744956 971.73554,362.28447 C971.264672,361.823984 970.999995,361.198393 971,360.545947 L971,360.454036 C971,359.098709 972.119288,358 973.5,358 C974.880712,358 976,359.098709 976,360.454036 L976,360.545947 C976.00001,361.897692 974.886417,362.99492 973.509363,362.999983 Z M973.507812,359.00002 C973.108636,358.997991 972.725095,359.151309 972.442098,359.426032 C972.159102,359.700756 971.999995,360.074222 972,360.463752 L972,360.539988 C972,361.348385 972.671573,362.00372 973.5,362.00372 C974.328427,362.00372 975,361.348385 975,360.539988 L975,360.463752 C975.000011,359.658323 974.333187,359.004215 973.507812,359.00002 Z" id="agreement" fill="#18AF90"></path>
    </g>
</svg>