<?xml version="1.0" encoding="UTF-8"?>
<svg width="18px" height="17px" viewBox="0 0 18 17" version="1.1" xmlns="http://www.w3.org/2000/svg" xmlns:xlink="http://www.w3.org/1999/xlink">
    <!-- Generator: Sketch 48.2 (47327) - http://www.bohemiancoding.com/sketch -->
    <title>change</title>
    <desc>Created with Sketch.</desc>
    <defs></defs>
    <g id="iconography" stroke="none" stroke-width="1" fill="none" fill-rule="evenodd" transform="translate(-902.000000, -359.000000)">
        <path d="M915.320366,366.70054 L906.676179,366.70054 C905.458731,366.70054 904.47618,365.664272 904.47618,364.390376 C904.47618,363.116481 905.458731,362.080212 906.676179,362.080212 L915.190473,362.080212 L915.190473,363.620328 L918.204033,361.644685 C918.388784,361.523566 918.440367,361.275608 918.319247,361.090857 C918.289154,361.044954 918.249936,361.005736 918.204033,360.975643 L915.190473,359 L915.190473,360.540116 L906.676179,360.540116 C904.647332,360.540116 903,362.267483 903,364.390376 C903,366.51327 904.647352,368.240636 906.676179,368.240636 L915.320346,368.240636 C916.537795,368.240636 917.528147,369.276905 917.528147,370.5508 C917.528147,371.824696 916.537795,372.860964 915.320346,372.860964 L906.619039,372.860964 L906.619039,371.320848 L903.651856,373.29815 C903.468021,373.420655 903.418304,373.668994 903.54081,373.852829 C903.570124,373.896818 903.607867,373.934561 903.651856,373.963875 L906.619039,375.941176 L906.619039,374.40106 L915.320346,374.40106 C917.349194,374.40106 919,372.673694 919,370.5508 C919,368.427907 917.349194,366.70054 915.320366,366.70054 Z" id="change" stroke="#9D71E0" stroke-width="0.6" fill="#9D71E0" fill-rule="nonzero" transform="translate(911.000000, 367.470588) rotate(-90.000000) translate(-911.000000, -367.470588) "></path>
    </g>
</svg>