<?xml version="1.0" encoding="UTF-8"?>
<svg width="18px" height="19px" viewBox="0 0 18 19" version="1.1" xmlns="http://www.w3.org/2000/svg" xmlns:xlink="http://www.w3.org/1999/xlink">
    <!-- Generator: Sketch 48.2 (47327) - http://www.bohemiancoding.com/sketch -->
    <title>Communities</title>
    <desc>Created with Sketch.</desc>
    <defs></defs>
    <g id="iconography" stroke="none" stroke-width="1" fill="none" fill-rule="evenodd" transform="translate(-731.000000, -358.000000)">
        <path d="M740.000913,363.799988 L742.723135,363.799988 C743.426732,363.804383 743.995869,364.286841 744.000913,364.899963 L744.000913,371.149733 C743.999783,371.713009 743.644265,372.230378 743.074987,372.497192 L742.880542,372.594016 C742.741717,372.667658 742.657374,372.799343 742.65832,372.940966 L742.65832,376.047891 C742.668372,376.297385 742.561616,376.539724 742.362561,376.719269 C742.163506,376.898814 741.889252,377.000141 741.602764,376.999987 C740.534863,376.999987 740.000913,376.999987 740.000913,376.999987 L740.000456,370.399988 C740.000228,373.699988 740,376.999987 740,376.999987 C740,376.999987 739.466049,376.999987 738.398148,376.999987 C738.111661,377.000141 737.837407,376.898814 737.638352,376.719269 C737.439297,376.539724 737.33254,376.297385 737.342593,376.047891 L737.342593,372.940966 C737.343539,372.799343 737.259195,372.667658 737.12037,372.594016 L736.925926,372.497192 C736.356647,372.230378 736.00113,371.713009 736,371.149733 L736,364.899963 C736.005044,364.286841 736.57418,363.804383 737.277778,363.799988 C739.093201,363.799988 740.000913,363.799988 740.000913,363.799988 C740.000913,363.799988 740.000913,363.799988 740.000913,363.799988 Z M735.8,375.799987 L733.212344,375.799982 C732.963683,375.800811 732.726099,375.70957 732.55774,375.548589 C732.389381,375.387608 732.305784,375.171744 732.327409,374.953829 L732.327409,371.569215 L731.259714,370.672292 C731.092789,370.527023 730.999211,370.328848 731.000005,370.122293 L731.000005,365.578449 C731.000005,365.148517 731.396204,364.799988 731.884941,364.799988 L734.329274,364.799988 C734.605416,364.799988 734.829274,365.023845 734.829274,365.299988 L734.829274,371.410742 C734.829274,371.967011 735.10463,372.487212 735.564637,372.799988 L736.081137,373.151175 C736.218047,373.244265 736.3,373.39909 736.3,373.56465 L736.300001,375.299988 C736.300001,375.57613 736.076143,375.799988 735.800001,375.799988 Z M744.180053,375.799988 C743.90391,375.799988 743.680053,375.57613 743.680053,375.299988 L743.680054,373.56465 C743.680054,373.39909 743.762007,373.244265 743.898917,373.151175 L744.415417,372.799988 C744.875424,372.487212 745.15078,371.967011 745.15078,371.410742 L745.15078,365.299988 C745.15078,365.023845 745.374638,364.799988 745.65078,364.799988 L748.095113,364.799988 C748.58385,364.799988 748.980049,365.148517 748.980049,365.578449 L748.980049,370.122293 C748.980843,370.328848 748.887265,370.527023 748.72034,370.672292 L747.652645,371.569215 L747.652645,374.953829 C747.67427,375.171744 747.590673,375.387608 747.422314,375.548589 C747.253955,375.70957 747.016371,375.800811 746.76771,375.799982 L744.180054,375.799987 Z M733.490637,363.999983 C732.113583,363.99492 730.99999,362.897692 731,361.545947 L731,361.454036 C731,360.098709 732.119288,359 733.5,359 C734.880712,359 736,360.098709 736,361.454036 L736,361.545947 C736.000005,362.198393 735.735328,362.823984 735.26446,363.28447 C734.793592,363.744956 734.155299,364.002426 733.490637,363.999983 Z M733.492188,360.00002 C732.666813,360.004215 731.999989,360.658323 732,361.463752 L732,361.539988 C732,362.348385 732.671573,363.00372 733.5,363.00372 C734.328427,363.00372 735,362.348385 735,361.539988 L735,361.463752 C735.000005,361.074222 734.840898,360.700756 734.557902,360.426032 C734.274905,360.151309 733.891364,359.997991 733.492188,360.00002 Z M746.490637,363.999983 C745.113583,363.99492 743.99999,362.897692 744,361.545947 L744,361.454036 C744,360.098709 745.119288,359 746.5,359 C747.880712,359 749,360.098709 749,361.454036 L749,361.545947 C749.000005,362.198393 748.735328,362.823984 748.26446,363.28447 C747.793592,363.744956 747.155299,364.002426 746.490637,363.999983 Z M746.492188,360.00002 C745.666813,360.004215 744.999989,360.658323 745,361.463752 L745,361.539988 C745,362.348385 745.671573,363.00372 746.5,363.00372 C747.328427,363.00372 748,362.348385 748,361.539988 L748,361.463752 C748.000005,361.074222 747.840898,360.700756 747.557902,360.426032 C747.274905,360.151309 746.891364,359.997991 746.492188,360.00002 Z M739.990637,362.999983 C738.613583,362.99492 737.49999,361.897692 737.5,360.545947 L737.5,360.454036 C737.5,359.098709 738.619288,358 740,358 C741.380712,358 742.5,359.098709 742.5,360.454036 L742.5,360.545947 C742.500005,361.198393 742.235328,361.823984 741.76446,362.28447 C741.293592,362.744956 740.655299,363.002426 739.990637,362.999983 Z M739.992188,359.00002 C739.166813,359.004215 738.499989,359.658323 738.5,360.463752 L738.5,360.539988 C738.5,361.348385 739.171573,362.00372 740,362.00372 C740.828427,362.00372 741.5,361.348385 741.5,360.539988 L741.5,360.463752 C741.500005,360.074222 741.340898,359.700756 741.057902,359.426032 C740.774905,359.151309 740.391364,358.997991 739.992188,359.00002 Z" id="Communities" fill="#18AF90"></path>
    </g>
</svg>