<?xml version="1.0" encoding="UTF-8"?>
<svg width="22px" height="18px" viewBox="0 0 22 18" version="1.1" xmlns="http://www.w3.org/2000/svg" xmlns:xlink="http://www.w3.org/1999/xlink">
    <!-- Generator: Sketch 48.2 (47327) - http://www.bohemiancoding.com/sketch -->
    <title>home1</title>
    <desc>Created with Sketch.</desc>
    <defs></defs>
    <g id="iconography" stroke="none" stroke-width="1" fill="none" fill-rule="evenodd" transform="translate(-160.000000, -397.000000)">
        <path d="M181.723011,405.125579 L172.428029,397.469234 C171.627901,396.843227 170.372338,396.843951 169.572943,397.469234 L160.278695,405.125579 C159.961137,405.374098 159.906866,405.829837 160.157685,406.143565 C160.408505,406.457293 160.859539,406.510909 161.177097,406.263115 L161.466786,406.028362 L161.466786,412.826365 C161.466786,414.070409 162.793488,415 163.960311,415 L178.628106,415 C179.780995,415 180.534919,414.126199 180.534919,412.826365 L180.534919,406.062416 L180.802607,406.263115 C180.93755,406.368174 181.103296,406.418892 181.262442,406.418892 C181.478792,406.418892 181.695875,406.324701 181.840353,406.143565 C182.091906,405.829837 182.041302,405.374098 181.723011,405.125579 Z M179.06814,412.826365 C179.06814,413.306738 178.933929,413.55091 178.628106,413.55091 L173.21569,413.55091 C173.21569,413.543664 173.2108,412.079093 173.201022,409.157195 C173.201022,408.314549 172.513102,407.278488 171.000853,407.278488 C169.488603,407.278488 168.800683,408.314549 168.800683,409.157195 L168.800683,413.520479 C168.800683,413.527724 167.187226,413.537868 163.960311,413.55091 C163.500476,413.55091 162.933565,413.158206 162.933565,412.826365 L162.933565,405.108472 L170.472079,398.878707 C170.742699,398.66714 171.231137,398.66714 171.502491,398.878707 L179.06814,405.108472 L179.06814,412.826365 Z" id="home1" fill="#666666" fill-rule="nonzero"></path>
    </g>
</svg>