<?xml version="1.0" encoding="UTF-8"?>
<svg width="22px" height="17px" viewBox="0 0 22 17" version="1.1" xmlns="http://www.w3.org/2000/svg" xmlns:xlink="http://www.w3.org/1999/xlink">
    <!-- Generator: Sketch 48.2 (47327) - http://www.bohemiancoding.com/sketch -->
    <title>deal2</title>
    <desc>Created with Sketch.</desc>
    <defs></defs>
    <g id="iconography" stroke="none" stroke-width="1" fill="none" fill-rule="evenodd" transform="translate(-259.000000, -359.000000)">
        <path d="M262.203883,360.754764 C262.203883,360.175597 263.578726,360.236145 263.578726,360.239949 L276.410594,360.239949 C276.410594,360.239949 277.785437,360.175597 277.785437,360.754764 L277.785437,361.246257 L262.203883,361.246257 L262.203883,360.754764 Z M265.407767,359.305184 C265.407767,358.964195 266.217219,358.999843 266.217219,359.002082 L273.772102,359.002082 C273.772102,359.002082 274.581553,358.964195 274.581553,359.305184 L274.581553,359.759838 L265.407767,359.759838 L265.407767,359.305184 Z M272.290281,368.064167 L272.290281,366.77713 L273.528145,366.77713 L273.528145,368.385926 C273.528145,368.385926 273.528145,369.158149 272.654358,369.158149 L267.338824,369.158149 C266.465038,369.158149 266.465038,368.385926 266.465038,368.385926 L266.465038,366.77713 L267.702902,366.77713 L267.702902,368.064167 L272.290281,368.064167 Z M259,361.623868 L259,375 C259,375.552285 259.447715,376 260,376 L280,376 C280.552285,376 281,375.552285 281,375 L281,361.623868 L259,361.623868 Z M279.412729,374.817519 L260.587399,374.817519 L260.587399,362.756473 L279.412729,362.756473 L279.412729,374.817519 Z" id="deal2" fill="#3E76C0" fill-rule="nonzero"></path>
    </g>
</svg>