<?xml version="1.0" encoding="UTF-8"?>
<svg width="22px" height="17px" viewBox="0 0 22 17" version="1.1" xmlns="http://www.w3.org/2000/svg" xmlns:xlink="http://www.w3.org/1999/xlink">
    <!-- Generator: Sketch 48.2 (47327) - http://www.bohemiancoding.com/sketch -->
    <title>deal1</title>
    <desc>Created with Sketch.</desc>
    <defs></defs>
    <g id="iconography" stroke="none" stroke-width="1" fill="none" fill-rule="evenodd" transform="translate(-259.000000, -398.000000)">
        <path d="M262.203883,399.754764 C262.203883,399.175597 263.578726,399.236145 263.578726,399.239949 L276.410594,399.239949 C276.410594,399.239949 277.785437,399.175597 277.785437,399.754764 L277.785437,400.246257 L262.203883,400.246257 L262.203883,399.754764 Z M265.407767,398.305184 C265.407767,397.964195 266.217219,397.999843 266.217219,398.002082 L273.772102,398.002082 C273.772102,398.002082 274.581553,397.964195 274.581553,398.305184 L274.581553,398.759838 L265.407767,398.759838 L265.407767,398.305184 Z M272.290281,407.064167 L272.290281,405.77713 L273.528145,405.77713 L273.528145,407.385926 C273.528145,407.385926 273.528145,408.158149 272.654358,408.158149 L267.338824,408.158149 C266.465038,408.158149 266.465038,407.385926 266.465038,407.385926 L266.465038,405.77713 L267.702902,405.77713 L267.702902,407.064167 L272.290281,407.064167 Z M259,400.623868 L259,414 C259,414.552285 259.447715,415 260,415 L280,415 C280.552285,415 281,414.552285 281,414 L281,400.623868 L259,400.623868 Z M279.412729,413.817519 L260.587399,413.817519 L260.587399,401.756473 L279.412729,401.756473 L279.412729,413.817519 Z" id="deal1" fill="#666666" fill-rule="nonzero"></path>
    </g>
</svg>