<?xml version="1.0" encoding="UTF-8"?>
<svg width="19px" height="16px" viewBox="0 0 19 16" version="1.1" xmlns="http://www.w3.org/2000/svg" xmlns:xlink="http://www.w3.org/1999/xlink">
    <!-- Generator: Sketch 48.2 (47327) - http://www.bohemiancoding.com/sketch -->
    <title>deal1 copy 3</title>
    <desc>Created with Sketch.</desc>
    <defs></defs>
    <g id="overall-ui-kit" stroke="none" stroke-width="1" fill="none" fill-rule="evenodd" transform="translate(-1236.000000, -2107.000000)">
        <path d="M1238.76699,2108.97723 C1238.76699,2108.35184 1239.95435,2108.41722 1239.95435,2108.42133 L1251.03642,2108.42133 C1251.03642,2108.42133 1252.22379,2108.35184 1252.22379,2108.97723 L1252.22379,2109.50796 L1238.76699,2109.50796 L1238.76699,2108.97723 Z M1241.53398,2107.35038 C1241.53398,2106.95889 1242.23305,2106.99982 1242.23305,2107.00239 L1248.75772,2107.00239 C1248.75772,2107.00239 1249.4568,2106.95889 1249.4568,2107.35038 L1249.4568,2107.87236 L1241.53398,2107.87236 L1241.53398,2107.35038 Z M1247.47797,2115.74753 L1247.47797,2114.59835 L1248.54703,2114.59835 L1248.54703,2116.03482 C1248.54703,2116.03482 1248.54703,2116.72433 1247.7924,2116.72433 L1243.20171,2116.72433 C1242.44708,2116.72433 1242.44708,2116.03482 1242.44708,2116.03482 L1242.44708,2114.59835 L1243.51614,2114.59835 L1243.51614,2115.74753 L1247.47797,2115.74753 Z M1236,2109.99706 L1236,2121.83333 C1236,2122.38562 1236.44772,2122.83333 1237,2122.83333 L1254,2122.83333 C1254.55228,2122.83333 1255,2122.38562 1255,2121.83333 L1255,2109.99706 L1236,2109.99706 Z M1253.52223,2121.48123 L1237.47777,2121.48123 L1237.47777,2111.27449 L1253.52223,2111.27449 L1253.52223,2121.48123 Z" id="deal1-copy-3" fill="#3E76C0" fill-rule="nonzero"></path>
    </g>
</svg>