<?xml version="1.0" encoding="UTF-8"?>
<svg width="19px" height="17px" viewBox="0 0 19 17" version="1.1" xmlns="http://www.w3.org/2000/svg" xmlns:xlink="http://www.w3.org/1999/xlink">
    <!-- Generator: Sketch 48.2 (47327) - http://www.bohemiancoding.com/sketch -->
    <title>documents</title>
    <desc>Created with Sketch.</desc>
    <defs></defs>
    <g id="iconography" stroke="none" stroke-width="1" fill="none" fill-rule="evenodd" transform="translate(-505.000000, -359.000000)">
        <path d="M522.269183,360.730817 C519.961427,358.423061 516.219572,358.423061 513.911488,360.730817 L506.250158,368.391819 C504.583281,370.058696 504.583281,372.761092 506.250158,374.427968 C507.917035,376.094845 510.61943,376.094845 512.286307,374.427968 L519.483066,367.23121 C520.508825,366.205451 520.508825,364.542366 519.483066,363.516606 C518.457306,362.490846 516.794221,362.490846 515.768461,363.516606 L509.73264,369.552756 C509.483794,369.801602 509.386609,370.164303 509.477693,370.504232 C509.568777,370.844162 509.834292,371.109678 510.174222,371.200762 C510.514152,371.291846 510.876853,371.19466 511.125699,370.945814 L517.161848,364.909665 C517.326714,364.738967 517.570854,364.670509 517.800434,364.730601 C518.030014,364.790694 518.209306,364.969986 518.269399,365.199566 C518.329491,365.429146 518.261033,365.673286 518.090335,365.838152 L510.893577,373.03491 C509.996015,373.932381 508.540852,373.932308 507.643381,373.034746 C506.745909,372.137183 506.745982,370.682021 507.643545,369.784549 L515.304546,362.123547 C516.84305,360.585043 519.33762,360.585043 520.876453,362.123547 C522.414957,363.662051 522.414957,366.156621 520.876453,367.695454 L514.375731,374.195847 C514.126885,374.444693 514.0297,374.807394 514.120784,375.147324 C514.211868,375.487253 514.477383,375.752769 514.817313,375.843853 C515.157243,375.934937 515.519944,375.837751 515.76879,375.588905 L522.269183,369.088512 C524.576939,366.780428 524.576939,363.038573 522.269183,360.730817 Z" id="documents" fill="#3E76C0" fill-rule="nonzero"></path>
    </g>
</svg>