<?xml version="1.0" encoding="UTF-8"?>
<svg width="20px" height="17px" viewBox="0 0 20 17" version="1.1" xmlns="http://www.w3.org/2000/svg" xmlns:xlink="http://www.w3.org/1999/xlink">
    <!-- Generator: Sketch 48.2 (47327) - http://www.bohemiancoding.com/sketch -->
    <title>issue</title>
    <desc>Created with Sketch.</desc>
    <defs></defs>
    <g id="iconography" stroke="none" stroke-width="1" fill="none" fill-rule="evenodd" transform="translate(-845.000000, -359.000000)">
        <path d="M853.921567,359.339329 L845.071701,374.24316 C844.846117,374.62306 844.971215,375.113901 845.351115,375.339485 C845.474719,375.412881 845.615817,375.451615 845.75957,375.451615 L863.239371,375.451615 C863.681199,375.451615 864.039371,375.093443 864.039371,374.651615 C864.039371,374.510842 864.002225,374.372562 863.931684,374.250738 L855.301749,359.346906 C855.080351,358.964553 854.590912,358.834073 854.208559,359.055471 C854.090204,359.124004 853.991395,359.221734 853.921567,359.339329 Z M854.496834,373.53049 C854.223819,373.53049 853.985838,373.440621 853.783124,373.260948 C853.580426,373.083243 853.476988,372.832532 853.476988,372.512734 C853.476988,372.232683 853.574218,371.992297 853.770691,371.795878 C853.963087,371.599492 854.200968,371.501199 854.484402,371.501199 C854.765738,371.501199 855.005733,371.599492 855.206367,371.795878 C855.404937,371.992297 855.50428,372.230599 855.50428,372.512734 C855.50428,372.830431 855.404937,373.079057 855.20224,373.258863 C855.001589,373.440621 854.765738,373.53049 854.496834,373.53049 Z M855.178355,368.962782 C855.146957,369.299242 855.080075,369.557845 854.975522,369.738507 C854.87107,369.919127 854.699602,370.007712 854.459299,370.007712 C854.214726,370.007712 854.045343,369.920894 853.949132,369.747342 C853.855173,369.572051 853.786222,369.306366 853.746433,368.952152 L853.526918,366.199801 C853.487262,365.664954 853.466308,365.278836 853.466308,365.045082 C853.466308,364.72803 853.564605,364.480098 853.763133,364.301231 C853.95749,364.122336 854.218913,364.033765 854.538644,364.033765 C854.925356,364.033765 855.186713,364.148868 855.318409,364.375611 C855.450071,364.60405 855.516954,364.931732 855.516954,365.362107 C855.516954,365.611848 855.500221,365.86867 855.471025,366.128956 L855.178355,368.962782 Z" id="issue" fill="#E34C5E" fill-rule="nonzero"></path>
    </g>
</svg>