<?xml version="1.0" encoding="UTF-8"?>
<svg width="20px" height="20px" viewBox="0 0 20 20" version="1.1" xmlns="http://www.w3.org/2000/svg" xmlns:xlink="http://www.w3.org/1999/xlink">
    <!-- Generator: Sketch 48.2 (47327) - http://www.bohemiancoding.com/sketch -->
    <title>overview</title>
    <desc>Created with Sketch.</desc>
    <defs></defs>
    <g id="iconography" stroke="none" stroke-width="1" fill="none" fill-rule="evenodd" transform="translate(-589.000000, -357.000000)">
        <path d="M593.559885,372.3 L591.052584,372.3 C590.471258,372.3 590,371.768832 590,371.115139 L590,359.183616 C590,358.529923 590.471258,358 591.052584,358 L606.947416,358 C607.528742,358 608,358.529923 608,359.183616 L608,371.115139 C608,371.768832 607.528742,372.3 606.947416,372.3 L604.655316,372.3 L605.346235,375.401163 C605.382266,375.562884 605.280374,375.723192 605.118653,375.759222 L604.365131,375.927102 C604.203411,375.963132 604.043102,375.86124 604.007072,375.69952 L603.249681,372.3 L594.965521,372.3 L594.208129,375.69952 C594.172099,375.86124 594.011791,375.963132 593.85007,375.927102 L593.096548,375.759222 C592.934828,375.723192 592.832936,375.562884 592.868966,375.401163 L593.559885,372.3 Z M595.792283,369.499982 C595.792283,369.665667 595.926598,369.799982 596.092283,369.799982 L605.107668,369.799982 C605.273353,369.799982 605.407668,369.665667 605.407668,369.499982 L605.407668,368.499982 C605.407668,368.334296 605.273353,368.199982 605.107668,368.199982 L596.092283,368.199982 C595.926598,368.199982 595.792283,368.334296 595.792283,368.499982 L595.792283,369.499982 Z M592,369.499982 C592,369.665667 592.134315,369.799982 592.3,369.799982 L593.5,369.799982 C593.665685,369.799982 593.8,369.665667 593.8,369.499982 L593.8,368.499982 C593.8,368.334296 593.665685,368.199982 593.5,368.199982 L592.3,368.199982 C592.134315,368.199982 592,368.334296 592,368.499982 L592,369.499982 Z M595.792283,365.999982 C595.792283,366.165667 595.926598,366.299982 596.092283,366.299982 L605.107668,366.299982 C605.273353,366.299982 605.407668,366.165667 605.407668,365.999982 L605.407668,364.999982 C605.407668,364.834296 605.273353,364.699982 605.107668,364.699982 L596.092283,364.699982 C595.926598,364.699982 595.792283,364.834296 595.792283,364.999982 L595.792283,365.999982 Z M592,365.999982 C592,366.165667 592.134315,366.299982 592.3,366.299982 L593.5,366.299982 C593.665685,366.299982 593.8,366.165667 593.8,365.999982 L593.8,364.999982 C593.8,364.834296 593.665685,364.699982 593.5,364.699982 L592.3,364.699982 C592.134315,364.699982 592,364.834296 592,364.999982 L592,365.999982 Z M595.792283,362.499982 C595.792283,362.665667 595.926598,362.799982 596.092283,362.799982 L605.107668,362.799982 C605.273353,362.799982 605.407668,362.665667 605.407668,362.499982 L605.407668,361.499982 C605.407668,361.334296 605.273353,361.199982 605.107668,361.199982 L596.092283,361.199982 C595.926598,361.199982 595.792283,361.334296 595.792283,361.499982 L595.792283,362.499982 Z M592,362.499982 C592,362.665667 592.134315,362.799982 592.3,362.799982 L593.5,362.799982 C593.665685,362.799982 593.8,362.665667 593.8,362.499982 L593.8,361.499982 C593.8,361.334296 593.665685,361.199982 593.5,361.199982 L592.3,361.199982 C592.134315,361.199982 592,361.334296 592,361.499982 L592,362.499982 Z" id="overview" stroke="#4582E0" stroke-width="0.3" fill="#3E76C0"></path>
    </g>
</svg>