<?xml version="1.0" encoding="UTF-8"?>
<svg width="18px" height="18px" viewBox="0 0 18 18" version="1.1" xmlns="http://www.w3.org/2000/svg" xmlns:xlink="http://www.w3.org/1999/xlink">
    <!-- Generator: Sketch 48.2 (47327) - http://www.bohemiancoding.com/sketch -->
    <title>permission</title>
    <desc>Created with Sketch.</desc>
    <defs></defs>
    <g id="iconography" stroke="none" stroke-width="1" fill="none" fill-rule="evenodd" transform="translate(-703.000000, -358.000000)">
        <path d="M720.178014,375.668777 L720.132573,375.668777 L716.261054,375.350694 C715.832916,375.312913 715.50508,374.953478 715.506744,374.523679 L715.506744,373.451287 L714.397999,373.451287 C714.178675,373.45271 713.968392,373.363997 713.816362,373.205909 C713.657772,373.050473 713.569197,372.837237 713.570984,372.615184 L713.570984,371.479175 L712.471327,371.479175 C712.252741,371.486297 712.041379,371.400432 711.88969,371.242885 L709.699465,369.061747 C707.282812,369.556529 704.82804,368.405826 703.662416,366.231812 C702.496792,364.057797 702.896937,361.376397 704.646496,359.637414 C705.703857,358.557826 707.161811,357.965429 708.672512,358.001561 C710.334863,358.016521 711.903371,358.77429 712.948298,360.067255 C713.993226,361.360221 714.405009,363.052812 714.070828,364.681295 L720.596065,371.206532 C720.736316,371.347649 720.820322,371.535047 720.832355,371.733641 L720.99594,374.796322 C721.018959,375.027875 720.943362,375.258412 720.787697,375.431373 C720.632032,375.604334 720.410704,375.703713 720.178014,375.705129 L720.178014,375.668777 Z M709.241529,364.099724 C709.997491,363.343762 709.997491,362.118107 709.241529,361.362146 C708.485568,360.606185 707.259913,360.606185 706.503952,361.362146 C705.747991,362.118107 705.747991,363.343762 706.503952,364.099724 C707.259913,364.855685 708.485568,364.855685 709.241529,364.099724 Z" id="permission" fill="#F4B113" fill-rule="nonzero"></path>
    </g>
</svg>