<?xml version="1.0" encoding="UTF-8"?>
<svg width="22px" height="17px" viewBox="0 0 22 17" version="1.1" xmlns="http://www.w3.org/2000/svg" xmlns:xlink="http://www.w3.org/1999/xlink">
    <!-- Generator: Sketch 47.1 (45422) - http://www.bohemiancoding.com/sketch -->
    <title>personal1</title>
    <desc>Created with Sketch.</desc>
    <defs></defs>
    <g id="ui-kit" stroke="none" stroke-width="1" fill="none" fill-rule="evenodd">
        <g id="iconography" transform="translate(-219.000000, -410.000000)" fill="#666666">
            <path d="M228.8,410 L220,410 L220,410 C219.447715,410 219,410.447715 219,411 L219,426 L219,426 C219,426.552285 219.447715,427 220,427 L240,427 L240,427 C240.552285,427 241,426.552285 241,426 L241,411.597291 L229.8,411.597291 L229.8,411 L229.8,411 C229.8,410.447715 229.352285,410 228.8,410 Z M239.799988,425.773478 L220.200012,425.773478 L220.200012,412.895159 L239.799988,412.895159 L239.799988,425.773478 Z M231.23691,420.061801 C231.177766,420.113145 231.114764,420.160638 231.058191,420.215191 C230.850144,420.430235 230.843139,420.768974 231.042119,420.992408 C231.100626,421.054401 231.175157,421.099045 231.257482,421.121409 C231.919645,421.310097 232.590165,421.476965 233.242684,421.697101 C233.949205,421.935208 234.466721,422.519244 234.496293,423.355506 C234.499507,423.458836 234.500793,423.562165 234.499507,423.666136 C234.496936,423.84584 234.372861,423.974841 234.204427,423.976767 C234.031493,423.97805 225.972396,423.970349 225.81682,423.976767 C225.655458,423.982543 225.513383,423.872154 225.505668,423.709779 C225.48831,423.360641 225.503739,423.01407 225.65353,422.688037 C225.842672,422.267745 226.184903,421.935037 226.610772,421.75743 C226.925139,421.620086 227.260077,421.552055 227.586659,421.45386 C227.976885,421.335769 228.370325,421.229231 228.761836,421.116916 C228.979129,421.054662 229.13149,420.805644 229.103204,420.557911 C229.089897,420.396704 229.006187,420.249517 228.87434,420.155503 C228.149818,419.627304 227.741592,418.910416 227.632303,418.026661 C227.577015,417.581895 227.557729,417.131995 227.701733,416.697498 C228.015457,415.756622 228.664762,415.180288 229.64322,415.022406 C230.925115,414.815747 232.118294,415.670622 232.360658,416.943948 C232.39923,417.145473 232.39923,417.354699 232.416588,417.560074 C232.390873,418.377724 232.165224,419.116433 231.605921,419.72935 C231.494704,419.851933 231.360985,419.952054 231.23691,420.061801 Z" id="personal1"></path>
        </g>
    </g>
</svg>