<?xml version="1.0" encoding="UTF-8"?>
<svg width="22px" height="17px" viewBox="0 0 22 17" version="1.1" xmlns="http://www.w3.org/2000/svg" xmlns:xlink="http://www.w3.org/1999/xlink">
    <!-- Generator: Sketch 48.2 (47327) - http://www.bohemiancoding.com/sketch -->
    <title>portfolio1</title>
    <desc>Created with Sketch.</desc>
    <defs></defs>
    <g id="iconography" stroke="none" stroke-width="1" fill="none" fill-rule="evenodd" transform="translate(-290.000000, -398.000000)">
        <path d="M312,399.006084 C312,398.469506 311.556345,398 310.981049,398 L291.013314,398 C290.471859,398 290,398.43597 290,399.006084 L290,413.993916 C290,414.530494 290.438018,415 291.013314,415 L310.981049,415 C311.522504,415 312,414.56403 312,413.993916 L312,399.006084 Z M291.013314,414.014415 L291.013314,398.971153 L310.981049,398.971153 L310.981049,414.014415 L291.013314,414.014415 Z M291.013314,409.792837 L291.013314,408.663091 L310.981049,408.663091 L310.981049,409.792837 L291.013314,409.792837 Z M291.013314,404.243242 L291.013314,403.153174 L310.981049,403.153174 L310.981049,404.243242 L291.013314,404.243242 Z M308.735595,406.436695 C308.735595,406.904514 308.352906,407.283756 307.880835,407.283756 C307.408764,407.283756 307.026075,406.904514 307.026075,406.436695 C307.026075,405.968876 307.408764,405.589634 307.880835,405.589634 C308.352906,405.589634 308.735595,405.968876 308.735595,406.436695 Z M308.621079,412.349164 C308.468391,412.611246 308.186212,412.772695 307.880835,412.772695 C307.408764,412.772695 307.026075,412.393453 307.026075,411.925634 C307.026075,411.457815 307.408764,411.078573 307.880835,411.078573 C308.186212,411.078573 308.468391,411.240022 308.621079,411.502103 C308.773768,411.764185 308.773768,412.087083 308.621079,412.349164 Z M308.735596,401.049399 C308.735596,401.517218 308.352906,401.89646 307.880835,401.89646 C307.575459,401.89646 307.29328,401.735011 307.140591,401.47293 C306.987903,401.210848 306.987903,400.88795 307.140591,400.625868 C307.29328,400.363787 307.575459,400.202338 307.880835,400.202338 C308.352906,400.202338 308.735596,400.58158 308.735596,401.049399 Z M292.885217,411.001819 L298.94766,411.001819 L298.94766,412.884706 L292.885217,412.884706 L292.885217,411.001819 Z M292.885217,402.043243 L292.885217,400.160357 L298.94766,400.160357 L298.94766,402.043243 L292.885217,402.043243 Z M292.885217,405.53152 L298.94766,405.53152 L298.94766,407.414406 L292.885217,407.414406 L292.885217,405.53152 Z" id="portfolio1" fill="#666666" fill-rule="nonzero"></path>
    </g>
</svg>