<?xml version="1.0" encoding="UTF-8"?>
<svg width="18px" height="18px" viewBox="0 0 18 18" version="1.1" xmlns="http://www.w3.org/2000/svg" xmlns:xlink="http://www.w3.org/1999/xlink">
    <!-- Generator: Sketch 48.2 (47327) - http://www.bohemiancoding.com/sketch -->
    <title>profile</title>
    <desc>Created with Sketch.</desc>
    <defs></defs>
    <g id="iconography" stroke="none" stroke-width="1" fill="none" fill-rule="evenodd" transform="translate(-449.000000, -358.000000)">
        <path d="M462.682895,370.253209 L453.23037,370.253209 C453.066225,370.253209 452.938557,370.117889 452.938557,369.943906 L452.938557,369.3253 C452.938557,369.151317 453.066225,369.015997 453.23037,369.015997 L462.682895,369.015997 C462.84704,369.015997 462.974709,369.151317 462.974709,369.3253 L462.974709,369.943906 C462.974709,370.117889 462.84704,370.253209 462.682895,370.253209 Z M458.423374,372.677587 L453.188683,372.677587 C453.047987,372.677587 452.938557,372.542267 452.938557,372.368284 L452.938557,371.749678 C452.938557,371.575695 453.047987,371.440375 453.188683,371.440375 L458.423374,371.440375 C458.56407,371.440375 458.6735,371.575695 458.6735,371.749678 L458.6735,372.368284 C458.6735,372.542267 458.56407,372.677587 458.423374,372.677587 Z M458.857421,364.481827 C458.814349,364.518771 458.768468,364.552945 458.727269,364.592199 C458.57576,364.746935 458.570659,364.990675 458.715565,365.151447 C458.758172,365.196055 458.81245,365.228179 458.872403,365.24427 C459.35462,365.380042 459.842924,365.500112 460.31812,365.658511 C460.832641,365.829842 461.20952,366.250086 461.231056,366.851821 C461.233397,366.926172 461.234334,367.000523 461.233397,367.075336 C461.231524,367.204642 461.141167,367.297465 461.018506,367.29885 C460.892568,367.299774 455.023555,367.294232 454.910258,367.29885 C454.792746,367.303007 454.68928,367.223576 454.683662,367.106739 C454.671021,366.855516 454.682257,366.60614 454.791342,366.371542 C454.929084,366.069119 455.178313,365.829718 455.488451,365.701921 C455.717387,365.603095 455.961305,365.554143 456.199137,365.483487 C456.483318,365.398514 456.769839,365.321854 457.054956,365.241038 C457.213199,365.196243 457.324156,365.017061 457.303556,364.838804 C457.293866,364.722807 457.232904,364.616899 457.136887,364.549251 C456.609256,364.169183 456.311966,363.653345 456.232377,363.017437 C456.192114,362.697404 456.178069,362.373677 456.28294,362.061034 C456.511408,361.384025 456.984262,360.969322 457.696821,360.855717 C458.630357,360.707015 459.499286,361.322143 459.675787,362.238368 C459.703877,362.383375 459.703877,362.533924 459.716518,362.681703 C459.697791,363.270045 459.533462,363.801585 459.126152,364.242611 C459.045158,364.330816 458.947778,364.402858 458.857421,364.481827 Z M449,358 L449,376 L463,376 L467,372 L467,358" id="profile" fill="#3E76C0" fill-rule="nonzero"></path>
    </g>
</svg>