<?xml version="1.0" encoding="UTF-8"?>
<svg width="19px" height="17px" viewBox="0 0 19 17" version="1.1" xmlns="http://www.w3.org/2000/svg" xmlns:xlink="http://www.w3.org/1999/xlink">
    <!-- Generator: Sketch 48.2 (47327) - http://www.bohemiancoding.com/sketch -->
    <title>project</title>
    <desc>Created with Sketch.</desc>
    <defs></defs>
    <g id="iconography" stroke="none" stroke-width="1" fill="none" fill-rule="evenodd" transform="translate(-646.000000, -359.000000)">
        <path d="M654.489898,362.627045 L649.258693,362.627045 C649.106721,362.638853 648.957967,362.570917 648.851058,362.440878 C648.744149,362.310839 648.689633,362.131528 648.701667,361.949505 L648.701667,360.98159 C648.735366,360.649302 648.980171,360.406832 649.258693,360.429879 L654.489898,360.429879 C654.779701,360.429879 655.014633,360.711556 655.014633,361.059023 L655.014633,361.949505 C655.025899,362.124579 654.97563,362.297331 654.875975,362.426006 C654.776321,362.55468 654.636351,362.627566 654.489898,362.627045 Z M662.336806,366.078376 L655.393955,366.078376 C655.104152,366.078376 654.86922,365.800014 654.86922,365.456637 L654.86922,364.500115 C654.86922,364.33522 654.924505,364.177078 655.022912,364.060479 C655.121318,363.94388 655.254787,363.878376 655.393955,363.878376 L662.336806,363.878376 C662.62661,363.878376 662.861541,364.156738 662.861541,364.500115 L662.861541,365.456637 C662.861541,365.621532 662.806257,365.779674 662.70785,365.896273 C662.609443,366.012872 662.475975,366.078376 662.336806,366.078376 Z M651.155812,369.641537 C650.866009,369.641537 650.631077,369.356989 650.631077,369.005983 L650.631077,368.028207 C650.65221,367.696424 650.881067,367.440556 651.155812,367.441542 L658.033878,367.441542 C658.173046,367.441542 658.306514,367.508502 658.404921,367.627692 C658.503328,367.746881 658.558613,367.908537 658.558613,368.077096 L658.558613,369.054872 C658.53748,369.386655 658.308622,369.642523 658.033878,369.641537 L651.155812,369.641537 Z M663.97529,373.068366 L658.146694,373.068366 C657.856891,373.068366 657.621959,372.790004 657.621959,372.446627 L657.621959,371.490105 C657.621959,371.146728 657.856891,370.868366 658.146694,370.868366 L663.97529,370.868366 C664.265093,370.868366 664.500025,371.146728 664.500025,371.490105 L664.500025,372.446627 C664.500025,372.790004 664.265093,373.068366 663.97529,373.068366 Z M646,374.867253 L646.001101,359.755865 C646.039298,359.311164 646.400415,358.968447 646.782338,359.002309 C647.211461,358.968447 647.572579,359.311164 647.611876,359.781538 L647.611876,374.095946 L663.719092,374.102517 C664.021007,374.037651 664.323905,374.180255 664.485187,374.452371 C664.638271,374.710656 664.638271,375.04131 664.485187,375.299595 C664.323905,375.57171 664.021007,375.714315 663.781955,375.656141 L646.816165,375.647417 C646.392935,375.673198 646.038889,375.332733 646,374.867253 Z" id="project" fill="#1A9C7E" fill-rule="nonzero"></path>
    </g>
</svg>