<?xml version="1.0" encoding="UTF-8"?>
<svg width="18px" height="17px" viewBox="0 0 18 17" version="1.1" xmlns="http://www.w3.org/2000/svg" xmlns:xlink="http://www.w3.org/1999/xlink">
    <!-- Generator: Sketch 48.2 (47327) - http://www.bohemiancoding.com/sketch -->
    <title>reports</title>
    <desc>Created with Sketch.</desc>
    <defs></defs>
    <g id="iconography" stroke="none" stroke-width="1" fill="none" fill-rule="evenodd" transform="translate(-534.000000, -359.000000)">
        <path d="M537.8,361.5 L541.9,361.5 C542.010457,361.5 542.1,361.589543 542.1,361.7 L542.1,373.3 C542.1,373.410457 542.010457,373.5 541.9,373.5 L537.8,373.5 C537.689543,373.5 537.6,373.410457 537.6,373.3 L537.6,361.7 C537.6,361.589543 537.689543,361.5 537.8,361.5 Z M544.1,363.700012 L548.2,363.700012 C548.310457,363.700012 548.4,363.789555 548.4,363.900012 L548.4,364.393035 C548.4,364.503492 548.310457,364.593035 548.2,364.593035 L544.1,364.593035 C543.989543,364.593035 543.9,364.503492 543.9,364.393035 L543.9,363.900012 C543.9,363.789555 543.989543,363.700012 544.1,363.700012 Z M544.1,361.5 L548.2,361.5 C548.310457,361.5 548.4,361.589543 548.4,361.7 L548.4,362.193023 C548.4,362.30348 548.310457,362.393023 548.2,362.393023 L544.1,362.393023 C543.989543,362.393023 543.9,362.30348 543.9,362.193023 L543.9,361.7 C543.9,361.589543 543.989543,361.5 544.1,361.5 Z M544.1,365.900024 L548.2,365.900024 C548.310457,365.900024 548.4,365.989567 548.4,366.100024 L548.4,366.593048 C548.4,366.703505 548.310457,366.793048 548.2,366.793048 L544.1,366.793048 C543.989543,366.793048 543.9,366.703505 543.9,366.593048 L543.9,366.100024 C543.9,365.989567 543.989543,365.900024 544.1,365.900024 Z M544.1,368.099976 L548.2,368.099976 C548.310457,368.099976 548.4,368.189519 548.4,368.299976 L548.4,368.792999 C548.4,368.903456 548.310457,368.992999 548.2,368.992999 L544.1,368.992999 C543.989543,368.992999 543.9,368.903456 543.9,368.792999 L543.9,368.299976 C543.9,368.189519 543.989543,368.099976 544.1,368.099976 Z M544.1,370.400024 L548.2,370.400024 C548.310457,370.400024 548.4,370.489567 548.4,370.600024 L548.4,371.093048 C548.4,371.203505 548.310457,371.293048 548.2,371.293048 L544.1,371.293048 C543.989543,371.293048 543.9,371.203505 543.9,371.093048 L543.9,370.600024 C543.9,370.489567 543.989543,370.400024 544.1,370.400024 Z M544.1,372.599976 L548.2,372.599976 C548.310457,372.599976 548.4,372.689519 548.4,372.799976 L548.4,373.292999 C548.4,373.403456 548.310457,373.492999 548.2,373.492999 L544.1,373.492999 C543.989543,373.492999 543.9,373.403456 543.9,373.292999 L543.9,372.799976 C543.9,372.689519 543.989543,372.599976 544.1,372.599976 Z M535,376 L551,376 C551.552285,376 552,375.552285 552,375 L552,359 L534,359 L534,375 C534,375.552285 534.447715,376 535,376 Z" id="reports" fill="#3E76C0"></path>
    </g>
</svg>