<?xml version="1.0" encoding="UTF-8"?>
<svg width="18px" height="18px" viewBox="0 0 18 18" version="1.1" xmlns="http://www.w3.org/2000/svg" xmlns:xlink="http://www.w3.org/1999/xlink">
    <!-- Generator: Sketch 48.2 (47327) - http://www.bohemiancoding.com/sketch -->
    <title>risk</title>
    <desc>Created with Sketch.</desc>
    <defs></defs>
    <g id="iconography" stroke="none" stroke-width="1" fill="none" fill-rule="evenodd" transform="translate(-675.000000, -358.000000)">
        <path d="M690.5625,358 C691.90441,358 693,359.09559 693,360.4375 L693,373.5625 C693,374.90441 691.90441,376 690.5625,376 L677.4375,376 C676.09559,376 675,374.90441 675,373.5625 L675,360.4375 C675,359.09559 676.09559,358 677.4375,358 L690.5625,358 Z M679.947537,372.632744 C680.819582,372.632744 681.523522,371.928804 681.523522,371.056759 C681.523522,370.184714 680.819582,369.480774 679.947537,369.480774 C679.075492,369.480774 678.371552,370.184714 678.371552,371.056759 C678.371552,371.928804 679.075492,372.632744 679.947537,372.632744 Z M679.947537,364.523469 C680.819582,364.523469 681.523522,363.819529 681.523522,362.947484 C681.523522,362.075439 680.819582,361.371499 679.947537,361.371499 C679.075492,361.371499 678.371552,362.075439 678.371552,362.947484 C678.371552,363.819529 679.075492,364.523469 679.947537,364.523469 Z M684.000077,368.575975 C684.872122,368.575975 685.576062,367.872035 685.576062,366.99999 C685.576062,366.127945 684.872122,365.424005 684.000077,365.424005 C683.128032,365.424005 682.424092,366.127945 682.424092,366.99999 C682.424092,367.872035 683.128032,368.575975 684.000077,368.575975 Z M688.052617,372.628549 C688.924662,372.628549 689.628602,371.924609 689.628602,371.052564 C689.628602,370.180519 688.924662,369.476579 688.052617,369.476579 C687.180572,369.476579 686.476632,370.180519 686.476632,371.052564 C686.476632,371.924609 687.180572,372.628549 688.052617,372.628549 Z M688.052617,364.523469 C688.924662,364.523469 689.628602,363.819529 689.628602,362.947484 C689.628602,362.075439 688.924662,361.371499 688.052617,361.371499 C687.180572,361.371499 686.476632,362.075439 686.476632,362.947484 C686.476632,363.819529 687.180572,364.523469 688.052617,364.523469 Z" id="risk" fill="#F4B113" fill-rule="nonzero"></path>
    </g>
</svg>