<?xml version="1.0" encoding="UTF-8"?>
<svg width="19px" height="19px" viewBox="0 0 19 19" version="1.1" xmlns="http://www.w3.org/2000/svg" xmlns:xlink="http://www.w3.org/1999/xlink">
    <!-- Generator: Sketch 48.2 (47327) - http://www.bohemiancoding.com/sketch -->
    <title>setting1 copy 3</title>
    <desc>Created with Sketch.</desc>
    <defs></defs>
    <g id="iconography" stroke="none" stroke-width="1" fill="none" fill-rule="evenodd" transform="translate(-787.000000, -358.000000)">
        <path d="M806,366.674242 L806,368.326668 C806,368.489585 805.937795,368.652373 805.813515,368.776679 C805.689235,368.901072 805.526843,368.963171 805.364473,368.963171 L804.39322,368.963171 C803.992408,368.963171 803.564664,369.277133 803.445042,369.660387 L802.941248,370.883991 C802.751946,371.238839 802.829881,371.76265 803.112848,372.045562 L803.802174,372.733916 C803.917159,372.848883 803.988659,373.008074 803.988659,373.183775 C803.988659,373.359607 803.918069,373.518754 803.802174,373.634264 L802.632237,374.803201 C802.517274,374.918732 802.35772,374.989606 802.182372,374.989195 C802.006005,374.989195 801.847492,374.917259 801.732398,374.801771 L801.046777,374.113418 C800.761969,373.829964 800.238718,373.752048 799.884381,373.94413 L798.659779,374.4474 C798.277492,374.566614 797.962068,374.992402 797.962068,375.39507 L797.962068,376.36406 C797.962068,376.526848 797.899863,376.689635 797.775562,376.813942 C797.651281,376.937814 797.488911,377 797.325588,377 L795.674217,377 C795.511024,377 795.348654,376.937814 795.224373,376.813942 C795.100072,376.689635 795.037888,376.526869 795.037888,376.36406 L795.037888,375.39507 C795.037888,374.99238 794.725238,374.566614 794.341087,374.4474 L793.114644,373.94413 C792.761239,373.752026 792.23983,373.829964 791.956928,374.113418 L791.266649,374.802248 C791.151685,374.917237 790.99211,374.988241 790.816783,374.988241 C790.641348,374.988241 790.482726,374.917237 790.367741,374.802248 L789.197804,373.63422 C789.082819,373.519123 789.011319,373.359564 789.011319,373.18423 C789.011319,373.007987 789.082819,372.848818 789.197804,372.733829 L789.888084,372.045475 C790.171961,371.762563 790.248964,371.238753 790.059662,370.883905 L789.555066,369.6603 C789.436246,369.277046 789.011341,368.963063 788.608774,368.962109 L787.636459,368.962109 C787.473136,368.962109 787.310765,368.90001 787.186485,368.776138 C787.062205,368.651853 787,368.488935 787,368.326148 L787,366.674286 C787,366.511498 787.062205,366.34871 787.186485,366.224404 C787.310765,366.10012 787.473157,366.037912 787.636459,366.037912 L788.608774,366.038866 C789.011341,366.038866 789.4372,365.724839 789.555911,365.340675 L790.059684,364.116139 C790.250827,363.762201 790.172914,363.240405 789.888105,362.955478 L789.199668,362.265781 C789.084618,362.150705 789.013182,361.991644 789.013182,361.816225 C789.014114,361.640458 789.084596,361.481831 789.199668,361.366733 L790.366722,360.199637 C790.481816,360.085081 790.640438,360.013644 790.815765,360.013644 C790.991092,360.013644 791.150645,360.084128 791.265739,360.199204 L791.957773,360.888034 C792.240783,361.172853 792.762192,361.249859 793.117461,361.05964 L794.341109,360.55637 C794.725259,360.437654 795.03791,360.010849 795.03791,359.608679 L795.03791,358.63594 C795.03791,358.473586 795.099985,358.310776 795.224287,358.186492 C795.348697,358.062186 795.510937,358 795.674261,358 L797.326563,358 C797.488955,358 797.651325,358.062186 797.775605,358.186492 C797.899907,358.310776 797.962112,358.473586 797.962112,358.63594 L797.962112,359.608679 C797.962112,360.010849 798.277536,360.437546 798.659736,360.55637 L799.882452,361.05964 C800.23692,361.249902 800.761059,361.171921 801.044026,360.887947 L801.733351,360.198705 C801.848315,360.08415 802.007868,360.012712 802.183217,360.012712 C802.358652,360.012712 802.517274,360.083608 802.632259,360.198705 L803.802196,361.366733 C803.918091,361.482221 803.988681,361.641303 803.988681,361.817135 C803.988681,361.992966 803.917181,362.152005 803.802196,362.267103 L803.11287,362.955435 C802.829924,363.23982 802.751968,363.762049 802.94127,364.115987 L803.444955,365.339678 C803.564685,365.723734 803.990544,366.037826 804.393133,366.037826 L805.364473,366.037826 C805.526864,366.037826 805.689235,366.099946 805.813515,366.224252 C805.937795,366.348667 806,366.511433 806,366.674242 Z M796.580919,371.892712 C798.962419,371.892712 800.892712,369.963093 800.892712,367.580608 C800.892712,365.198721 798.962419,363.267999 796.580919,363.268022 C794.198315,363.268022 792.268022,365.198721 792.268022,367.580608 C792.268022,369.963116 794.198315,371.892712 796.580919,371.892712 Z" id="setting1-copy-3" fill="#3E76C0"></path>
    </g>
</svg>