<?xml version="1.0" encoding="UTF-8"?>
<svg width="18px" height="16px" viewBox="0 0 18 16" version="1.1" xmlns="http://www.w3.org/2000/svg" xmlns:xlink="http://www.w3.org/1999/xlink">
    <!-- Generator: Sketch 48.2 (47327) - http://www.bohemiancoding.com/sketch -->
    <title>task</title>
    <desc>Created with Sketch.</desc>
    <defs></defs>
    <g id="iconography" stroke="none" stroke-width="1" fill="none" fill-rule="evenodd" transform="translate(-421.000000, -359.000000)">
        <path d="M428.0898,359.131832 L428.680173,359.722205 C428.818321,359.894751 428.818321,360.140032 428.680173,360.312578 L424.378884,364.563264 C424.050937,364.884716 423.526085,364.884716 423.198138,364.563264 L421.131832,362.505392 C421.047937,362.430202 421,362.322865 421,362.210206 C421,362.097547 421.047937,361.99021 421.131832,361.915019 L421.722205,361.324646 C421.797396,361.240751 421.904733,361.192814 422.017392,361.192814 C422.130051,361.192814 422.237387,361.240751 422.312578,361.324646 L423.813813,362.783711 L427.499427,359.131832 C427.574618,359.047937 427.681955,359 427.794614,359 C427.907272,359 428.014609,359.047937 428.0898,359.131832 Z M428.786837,372.423898 L438.34,372.423898 C438.704508,372.423898 439,372.71939 439,373.083898 L439,374.172048 C439,374.536556 438.704508,374.832048 438.34,374.832048 L428.786837,374.832048 C428.422329,374.832048 428.126837,374.536556 428.126837,374.172048 L428.126837,373.083898 C428.126837,372.71939 428.422329,372.423898 428.786837,372.423898 Z M430.59295,361.669318 L438.34,361.669318 C438.704508,361.669318 439,361.96481 439,362.329318 L439,363.417468 C439,363.781976 438.704508,364.077468 438.34,364.077468 L430.59295,364.077468 C430.228442,364.077468 429.93295,363.781976 429.93295,363.417468 L429.93295,362.329318 C429.93295,361.96481 430.228442,361.669318 430.59295,361.669318 Z M428.786837,367.042047 L438.34,367.042047 C438.704508,367.042047 439,367.337539 439,367.702047 L439,368.790197 C439,369.154705 438.704508,369.450197 438.34,369.450197 L428.786837,369.450197 C428.422329,369.450197 428.126837,369.154705 428.126837,368.790197 L428.126837,367.702047 C428.126837,367.337539 428.422329,367.042047 428.786837,367.042047 Z M424.272101,369.539262 L423.027247,369.539262 C422.860128,369.541947 422.699092,369.474349 422.580907,369.351902 C422.462722,369.229455 422.397477,369.062612 422.400068,368.889466 L422.400068,367.589875 C422.397477,367.416729 422.462722,367.249887 422.580907,367.12744 C422.699092,367.004992 422.860128,366.937395 423.027247,366.940079 L424.272101,366.940079 C424.43922,366.937395 424.600255,367.004992 424.718441,367.12744 C424.836626,367.249887 424.901871,367.416729 424.899279,367.589875 L424.899279,368.889466 C424.907525,369.064282 424.8441,369.234571 424.724646,369.358332 C424.605193,369.482093 424.440832,369.547805 424.272101,369.539262 Z M424.272101,374.919267 L423.027247,374.919267 C422.860128,374.921952 422.699092,374.854354 422.580907,374.731907 C422.462722,374.60946 422.397477,374.442617 422.400068,374.269471 L422.400068,372.96988 C422.397477,372.796734 422.462722,372.629892 422.580907,372.507445 C422.699092,372.384997 422.860128,372.317399 423.027247,372.320084 L424.272101,372.320084 C424.43922,372.317399 424.600255,372.384997 424.718441,372.507445 C424.836626,372.629892 424.901871,372.796734 424.899279,372.96988 L424.899279,374.269471 C424.907525,374.444287 424.8441,374.614576 424.724646,374.738336 C424.605193,374.862097 424.440832,374.92781 424.272101,374.919267 Z" id="task" fill="#3E76C0" fill-rule="nonzero"></path>
    </g>
</svg>