<?xml version="1.0" encoding="UTF-8"?>
<svg width="18px" height="17px" viewBox="0 0 18 17" version="1.1" xmlns="http://www.w3.org/2000/svg" xmlns:xlink="http://www.w3.org/1999/xlink">
    <!-- Generator: Sketch 48.2 (47327) - http://www.bohemiancoding.com/sketch -->
    <title>template1 copy 3</title>
    <desc>Created with Sketch.</desc>
    <defs></defs>
    <g id="iconography" stroke="none" stroke-width="1" fill="none" fill-rule="evenodd" transform="translate(-562.000000, -359.000000)">
        <path d="M564.659097,365.050021 C564.659097,364.884336 564.793412,364.750021 564.959097,364.750021 L571.722733,364.750021 C571.888419,364.750021 572.022733,364.884336 572.022733,365.050021 L572.022733,372.450051 C572.022733,372.615736 571.888419,372.750051 571.722733,372.750051 L564.959097,372.750051 C564.793412,372.750051 564.659097,372.615736 564.659097,372.450051 L564.659097,365.050021 Z M573.245442,364.750021 L577.140896,364.750021 C577.251353,364.750021 577.340896,364.839564 577.340896,364.950021 L577.340896,372.550051 C577.340896,372.660508 577.251353,372.750051 577.140896,372.750051 L573.245442,372.750051 C573.134985,372.750051 573.045442,372.660508 573.045442,372.550051 L573.045442,364.950021 C573.045442,364.839564 573.134985,364.750021 573.245442,364.750021 Z M562,359 L562,375 C562,375.552285 562.447715,376 563,376 L579,376 C579.552285,376 580,375.552285 580,375 L580,359 L562,359 Z M570.181799,360.200017 C570.576783,360.200017 570.897715,360.513415 570.897715,360.900026 C570.897715,361.286559 570.576783,361.600035 570.181799,361.600035 C569.786775,361.600035 569.465896,361.286559 569.465896,360.900026 C569.465883,360.513428 569.786775,360.200017 570.181799,360.200017 Z M567.215924,360.200017 C567.610893,360.200017 567.931813,360.513403 567.931813,360.9 C567.931813,361.286518 567.610893,361.599983 567.215924,361.599983 C566.82021,361.599983 566.499995,361.286518 566.499995,360.9 C566.499995,360.513416 566.820197,360.200017 567.215924,360.200017 Z M564.25,360.200017 C564.645392,360.200017 564.965909,360.513412 564.965909,360.900019 C564.965909,361.286549 564.645392,361.600022 564.25,361.600022 C563.854687,361.600022 563.534091,361.286549 563.534091,360.900019 C563.534078,360.513425 563.854674,360.200017 564.25,360.200017 Z M578.635065,374.874982 L563.365045,374.874982 L563.365045,362.500008 L578.635065,362.500008 L578.635065,374.874982 Z M571.153384,371.900023 L571.153384,365.6 L565.528384,365.6 L565.528384,371.900023 L571.153384,371.900023 Z" id="template1-copy-3" fill="#3E76C0" fill-rule="nonzero"></path>
    </g>
</svg>