<?xml version="1.0" encoding="UTF-8"?>
<svg width="21px" height="21px" viewBox="0 0 21 21" version="1.1" xmlns="http://www.w3.org/2000/svg" xmlns:xlink="http://www.w3.org/1999/xlink">
    <!-- Generator: Sketch 49 (51002) - http://www.bohemiancoding.com/sketch -->
    <title>timesheet1 copy 2</title>
    <desc>Created with Sketch.</desc>
    <defs></defs>
    <g id="ui-kit" stroke="none" stroke-width="1" fill="none" fill-rule="evenodd">
        <g id="overall-ui-kit" transform="translate(-715.000000, -1983.000000)" fill="#3E76C0" fill-rule="nonzero" stroke="#3E76C0" stroke-width="0.2">
            <path d="M719.220001,1993.94099 C719.460976,1993.94099 719.66,1993.74136 719.66,1993.50524 C719.66,1993.25961 719.460976,1993.06944 719.220001,1993.06944 L717.299167,1993.06944 L716.996642,1993.06944 C716.278942,1993.06944 715.975563,1993.20283 716.00153,1993.88993 C716.047445,1995.03834 716.299297,1996.12522 716.714492,1997.14019 C717.217243,1998.32455 717.924513,1999.35514 718.786601,2000.21631 C720.499879,2001.93915 722.879718,2003 725.50059,2003 C726.778261,2003 728.009123,2002.74354 729.137279,2002.27699 C730.322226,2001.77447 731.353328,2001.08789 732.22534,2000.21631 C733.938619,1998.50388 735,1996.11482 735,1993.50524 C735,1992.21862 734.743409,1990.99883 734.276628,1989.87079 C733.779548,1988.6812 733.086942,1987.64543 732.22534,1986.78472 C731.353309,1985.91266 730.296666,1985.21562 729.137279,1984.7335 C728.009142,1984.25701 726.778261,1984.00055 725.50059,1984.00055 C724.213325,1984.00055 722.992874,1984.25701 721.863785,1984.7335 C721.21284,1984.99517 720.643392,1985.31835 720.105058,1985.68743 L720.160917,1984.76474 C720.181738,1984.36963 719.874028,1984.02138 719.478799,1984.00055 C719.079181,1983.98535 718.740278,1984.28776 718.719865,1984.68287 L718.571205,1987.19969 C718.550909,1987.42018 718.612458,1987.63549 718.786601,1987.81009 C718.920169,1987.94779 719.109946,1988.02538 719.299782,1988.02538 L721.823056,1988.16822 C722.223082,1988.18909 722.556838,1987.88105 722.582398,1987.48685 C722.602753,1987.08706 722.299782,1986.74827 721.905427,1986.72792 L721.202876,1986.69243 C721.572137,1986.4568 721.976902,1986.24623 722.387358,1986.07677 C723.239015,1985.71769 724.126196,1985.50807 725.064497,1985.46166 L725.064497,1987.23001 C725.064497,1987.47087 725.259538,1987.66 725.495307,1987.66 C725.736282,1987.66 725.936528,1987.47087 725.936528,1987.23001 L725.936528,1985.46166 C726.865371,1985.50807 727.762943,1985.71769 728.57863,1986.05649 C728.777943,1986.13315 728.96304,1986.22542 729.14767,1986.32336 L728.921845,1986.70758 C728.803969,1986.91815 728.881135,1987.17413 729.080915,1987.29714 C729.291105,1987.42016 729.552979,1987.34304 729.675515,1987.13342 L729.896116,1986.74825 C730.368588,1987.06149 730.793708,1987.42016 731.1942,1987.81005 C731.58902,1988.20468 731.948414,1988.64048 732.250861,1989.10182 L731.866024,1989.32709 C731.661039,1989.44539 731.589079,1989.71178 731.712159,1989.91666 C731.835239,1990.12717 732.09183,1990.19393 732.292095,1990.07039 L732.686994,1989.84994 C732.774045,1990.02927 732.861136,1990.20387 732.933174,1990.39361 C733.286761,1991.24485 733.492212,1992.13159 733.548071,1993.06943 L731.77,1993.06943 C731.53425,1993.06943 731.349998,1993.25959 731.349998,1993.50522 C731.349998,1993.74134 731.53425,1993.94097 731.77,1993.94097 L733.548071,1993.94097 C733.482326,1995.08421 733.17881,1996.1763 732.686994,1997.15057 L732.30204,1996.93008 C732.091849,1996.80706 731.835259,1996.88413 731.712178,1997.08387 C731.589098,1997.28875 731.661058,1997.55562 731.866043,1997.67344 L732.25092,1997.89867 C731.948473,1998.3709 731.589098,1998.80102 731.194258,1999.1909 C730.793747,1999.59069 730.368627,1999.93946 729.896174,2000.25224 L729.675574,1999.86756 C729.553018,1999.65747 729.291164,1999.59069 729.080973,1999.71426 C728.881193,1999.8264 728.804028,2000.09327 728.921903,2000.29862 L729.147728,2000.67764 C728.973509,2000.77511 728.799289,2000.85697 728.608987,2000.9237 C727.763001,2001.28283 726.86541,2001.49286 725.936587,2001.53881 L725.936587,1999.76999 C725.936587,1999.53436 725.736341,1999.35001 725.495366,1999.35001 C725.259615,1999.35001 725.064555,1999.53436 725.064555,1999.76999 L725.064555,2001.53881 C723.910859,2001.4825 722.823432,2001.17967 721.85388,2000.67764 L722.069275,2000.29862 C722.187636,2000.09327 722.120881,1999.82638 721.910205,1999.71426 C721.70522,1999.59071 721.438743,1999.65747 721.320402,1999.86756 L721.099723,2000.25224 C720.633409,1999.93948 720.197393,1999.59069 719.802572,1999.1909 C719.412005,1998.79576 719.053641,1998.37089 718.740297,1997.89867 L719.130321,1997.67864 C719.335772,1997.55562 719.412005,1997.29396 719.289449,1997.08385 C719.176235,1996.88411 718.9097,1996.80704 718.704715,1996.93006 L718.3151,1997.15055 C718.222319,1996.97122 718.140414,1996.79662 718.068454,1996.60734 C717.709603,1995.75566 717.499413,1994.86941 717.453013,1993.94099 L719.220001,1993.94099 Z M724.708421,1988.80107 C725.076083,1988.80107 725.367759,1989.11958 725.367759,1989.52935 L725.367759,1994.09219 L729.300607,1996.55317 C729.610954,1996.74765 729.724461,1997.19386 729.535771,1997.54733 C729.351913,1997.88606 728.95158,1998.00867 728.631657,1997.79859 L724.421524,1995.14832 C724.204568,1995.03524 724.039399,1994.78919 724.039399,1994.50717 L724.039399,1989.52935 C724.039399,1989.11958 724.345841,1988.80107 724.708421,1988.80107 Z" id="timesheet1-copy-2"></path>
        </g>
    </g>
</svg>