<?xml version="1.0" encoding="UTF-8"?>
<svg width="19px" height="13px" viewBox="0 0 19 13" version="1.1" xmlns="http://www.w3.org/2000/svg" xmlns:xlink="http://www.w3.org/1999/xlink">
    <!-- Generator: Sketch 48.2 (47327) - http://www.bohemiancoding.com/sketch -->
    <title>users</title>
    <desc>Created with Sketch.</desc>
    <defs></defs>
    <g id="iconography" stroke="none" stroke-width="1" fill="none" fill-rule="evenodd" transform="translate(-929.000000, -361.000000)">
        <path d="M942.552966,372.497347 C942.552658,372.486345 942.552334,372.475342 942.551996,372.46434 C942.509726,371.254439 941.769991,370.409458 940.760091,370.064966 C940.213348,369.878269 939.657763,369.718055 939.100925,369.56244 C939.279994,369.512068 939.460217,369.465359 939.638383,369.411136 C940.110357,369.266568 940.586219,369.136143 941.059749,368.998646 C941.322561,368.922433 941.506841,368.617583 941.472629,368.314304 C941.456535,368.116953 941.355288,367.936766 941.19582,367.821673 C940.319519,367.175045 939.825773,366.297422 939.693589,365.215518 C939.62672,364.671031 939.603393,364.120257 939.777565,363.588341 C940.15701,362.43651 940.942338,361.730955 942.125773,361.537674 C943.676213,361.284679 945.11935,362.331227 945.412487,363.890048 C945.45914,364.136757 945.45914,364.392894 945.480134,364.644317 C945.449032,365.645294 945.176111,366.54963 944.499641,367.29997 C944.365124,367.450038 944.203393,367.572607 944.053326,367.706961 C943.981791,367.769817 943.905591,367.827958 943.837166,367.894743 C943.585536,368.158003 943.577064,368.572691 943.817727,368.846221 C943.888491,368.922114 943.978636,368.976768 944.078207,369.004146 C944.879086,369.235141 945.690073,369.439422 946.479289,369.708915 C947.333819,370.000409 947.959749,370.715392 947.995516,371.739155 C947.999404,371.865652 948.000959,371.992149 947.999404,372.119432 C947.996294,372.339427 947.846226,372.497352 947.642508,372.499709 C947.537796,372.500495 945.042573,372.498525 942.552966,372.497347 Z M937.200324,368.335531 C937.115782,368.409815 937.025728,368.478527 936.944862,368.557454 C936.647481,368.86858 936.637468,369.358666 936.921889,369.681928 C937.005519,369.771621 937.112054,369.836211 937.229729,369.868567 C938.176223,370.141561 939.134662,370.382984 940.067371,370.701477 C941.077271,371.045969 941.817006,371.890949 941.859276,373.10085 C941.863871,373.250347 941.865709,373.399843 941.863871,373.550269 C941.860195,373.810263 941.682843,373.996901 941.442084,373.999687 C941.194893,374.001544 929.675242,373.990401 929.452862,373.999687 C929.222212,374.008044 929.019129,373.848333 929.008102,373.61341 C928.983291,373.108279 929.005345,372.606862 929.219455,372.135158 C929.489815,371.527081 929.978999,371.04572 930.587735,370.78876 C931.03709,370.590051 931.51585,370.491624 931.982664,370.349556 C932.540452,370.178703 933.102834,370.024563 933.66246,369.862067 C933.973057,369.771998 934.190842,369.41172 934.150409,369.0533 C934.13139,368.820067 934.011734,368.607118 933.823272,368.471099 C932.787643,367.706902 932.204125,366.669712 932.047908,365.391098 C931.96888,364.747613 931.941312,364.096699 932.147152,363.46807 C932.595587,362.106816 933.523702,361.272978 934.922307,361.044554 C936.754645,360.745561 938.460171,361.98239 938.806605,363.824634 C938.861741,364.116198 938.861741,364.418906 938.886552,364.716042 C938.849795,365.899015 938.527252,366.967776 937.727787,367.854542 C937.568813,368.031895 937.377676,368.176749 937.200324,368.335531 Z" id="users" fill="#3E76C0" fill-rule="nonzero"></path>
    </g>
</svg>