<?xml version="1.0" encoding="UTF-8"?>
<svg width="18px" height="18px" viewBox="0 0 18 18" version="1.1" xmlns="http://www.w3.org/2000/svg" xmlns:xlink="http://www.w3.org/1999/xlink">
    <!-- Generator: Sketch 48.2 (47327) - http://www.bohemiancoding.com/sketch -->
    <title>value driver</title>
    <desc>Created with Sketch.</desc>
    <defs></defs>
    <g id="iconography" stroke="none" stroke-width="1" fill="none" fill-rule="evenodd" transform="translate(-874.000000, -358.000000)">
        <path d="M877.216744,375.5 C877.217461,375.307183 877.215627,375.114305 877.221613,374.92165 C877.222541,374.891852 877.253463,374.84484 877.280571,374.836639 C877.628246,374.731553 877.977545,374.63142 878.326822,374.531307 C879.0649,374.319794 879.803589,374.110251 880.541287,373.897541 C881.07159,373.744631 881.60067,373.587824 882.130446,373.43327 C882.146888,373.42848 882.1651,373.429271 882.187907,373.426917 C882.187907,369.005804 882.187907,365.053973 882.187907,360.627137 L877.236673,360.627137 C877.231815,360.627902 877.231815,359.525186 877.231815,359.525186 C878.734214,359.525186 880.238573,359.525186 881.739601,359.525186 C881.751237,359.315907 881.737177,359.113468 881.777733,358.921727 C881.915947,358.26815 882.516085,357.898815 883.198556,358.024322 C883.728501,358.121776 884.148961,358.61274 884.129168,359.146453 C884.124573,359.270255 884.128494,359.394361 884.128494,359.529672 C885.694677,359.529672 887.248213,359.529672 888.808009,359.529672 C888.808009,359.723423 888.807735,360.700206 888.808937,360.627137 C886.307378,360.627137 884.595356,360.627137 883.672873,360.627137 C883.672873,365.047843 883.672873,368.995959 883.672873,373.422228 C883.89104,373.484727 884.11376,373.549906 884.337323,373.612264 C884.70711,373.715401 885.077445,373.816753 885.447548,373.918794 C886.161322,374.11559 886.875264,374.311776 887.588785,374.509323 C887.975288,374.616338 888.361537,374.724327 888.746396,374.8367 C888.773356,374.844576 888.804342,374.891933 888.805269,374.921731 C888.811256,375.114366 888.809422,375.307223 888.810138,375.5 C884.945681,375.49998 881.081202,375.49998 877.216744,375.5 Z M888.647298,361.749403 L891.981477,369.010176 C892.073666,369.210935 891.985653,369.448416 891.784895,369.540605 C891.732531,369.564651 891.675591,369.5771 891.617971,369.5771 L885.35893,369.5771 C885.138016,369.5771 884.95893,369.398013 884.95893,369.1771 C884.95893,369.120184 884.971076,369.063923 884.994557,369.012077 L888.283359,361.750354 C888.328929,361.649735 888.447438,361.605109 888.548057,361.650679 C888.59195,361.670558 888.627191,361.705615 888.647298,361.749403 Z M877.695453,361.749403 L881.029631,369.010176 C881.121821,369.210935 881.033808,369.448416 880.833049,369.540605 C880.780686,369.564651 880.723746,369.5771 880.666126,369.5771 L874.407084,369.5771 C874.18617,369.5771 874.007084,369.398013 874.007084,369.1771 C874.007084,369.120184 874.01923,369.063923 874.042711,369.012077 L877.331514,361.750354 C877.377083,361.649735 877.495593,361.605109 877.596211,361.650679 C877.640104,361.670558 877.675345,361.705615 877.695453,361.749403 Z" id="value-driver" fill="#1A9C7E" fill-rule="nonzero"></path>
    </g>
</svg>